<svg id="visual" viewBox="0 0 900 600" width="900" height="600" xmlns="http://www.w3.org/2000/svg" xmlns:xlink="http://www.w3.org/1999/xlink" version="1.1"><path d="M0 37L16.7 47C33.3 57 66.7 77 100 78C133.3 79 166.7 61 200 65C233.3 69 266.7 95 300 105C333.3 115 366.7 109 400 109C433.3 109 466.7 115 500 104C533.3 93 566.7 65 600 60C633.3 55 666.7 73 700 83C733.3 93 766.7 95 800 93C833.3 91 866.7 85 883.3 82L900 79L900 0L883.3 0C866.7 0 833.3 0 800 0C766.7 0 733.3 0 700 0C666.7 0 633.3 0 600 0C566.7 0 533.3 0 500 0C466.7 0 433.3 0 400 0C366.7 0 333.3 0 300 0C266.7 0 233.3 0 200 0C166.7 0 133.3 0 100 0C66.7 0 33.3 0 16.7 0L0 0Z" fill="#6198ff"></path><path d="M0 139L16.7 158C33.3 177 66.7 215 100 213C133.3 211 166.7 169 200 181C233.3 193 266.7 259 300 263C333.3 267 366.7 209 400 204C433.3 199 466.7 247 500 269C533.3 291 566.7 287 600 279C633.3 271 666.7 259 700 262C733.3 265 766.7 283 800 271C833.3 259 866.7 217 883.3 196L900 175L900 77L883.3 80C866.7 83 833.3 89 800 91C766.7 93 733.3 91 700 81C666.7 71 633.3 53 600 58C566.7 63 533.3 91 500 102C466.7 113 433.3 107 400 107C366.7 107 333.3 113 300 103C266.7 93 233.3 67 200 63C166.7 59 133.3 77 100 76C66.7 75 33.3 55 16.7 45L0 35Z" fill="#4385ff"></path><path d="M0 175L16.7 198C33.3 221 66.7 267 100 268C133.3 269 166.7 225 200 235C233.3 245 266.7 309 300 311C333.3 313 366.7 253 400 252C433.3 251 466.7 309 500 334C533.3 359 566.7 351 600 343C633.3 335 666.7 327 700 327C733.3 327 766.7 335 800 319C833.3 303 866.7 263 883.3 243L900 223L900 173L883.3 194C866.7 215 833.3 257 800 269C766.7 281 733.3 263 700 260C666.7 257 633.3 269 600 277C566.7 285 533.3 289 500 267C466.7 245 433.3 197 400 202C366.7 207 333.3 265 300 261C266.7 257 233.3 191 200 179C166.7 167 133.3 209 100 211C66.7 213 33.3 175 16.7 156L0 137Z" fill="#2071ff"></path><path d="M0 235L16.7 265C33.3 295 66.7 355 100 374C133.3 393 166.7 371 200 374C233.3 377 266.7 405 300 406C333.3 407 366.7 381 400 386C433.3 391 466.7 427 500 432C533.3 437 566.7 411 600 401C633.3 391 666.7 397 700 405C733.3 413 766.7 423 800 415C833.3 407 866.7 381 883.3 368L900 355L900 221L883.3 241C866.7 261 833.3 301 800 317C766.7 333 733.3 325 700 325C666.7 325 633.3 333 600 341C566.7 349 533.3 357 500 332C466.7 307 433.3 249 400 250C366.7 251 333.3 311 300 309C266.7 307 233.3 243 200 233C166.7 223 133.3 267 100 266C66.7 265 33.3 219 16.7 196L0 173Z" fill="#0061f1"></path><path d="M0 343L16.7 370C33.3 397 66.7 451 100 467C133.3 483 166.7 461 200 460C233.3 459 266.7 479 300 475C333.3 471 366.7 443 400 442C433.3 441 466.7 467 500 469C533.3 471 566.7 449 600 441C633.3 433 666.7 439 700 456C733.3 473 766.7 501 800 502C833.3 503 866.7 477 883.3 464L900 451L900 353L883.3 366C866.7 379 833.3 405 800 413C766.7 421 733.3 411 700 403C666.7 395 633.3 389 600 399C566.7 409 533.3 435 500 430C466.7 425 433.3 389 400 384C366.7 379 333.3 405 300 404C266.7 403 233.3 375 200 372C166.7 369 133.3 391 100 372C66.7 353 33.3 293 16.7 263L0 233Z" fill="#0056d6"></path><path d="M0 601L16.7 601C33.3 601 66.7 601 100 601C133.3 601 166.7 601 200 601C233.3 601 266.7 601 300 601C333.3 601 366.7 601 400 601C433.3 601 466.7 601 500 601C533.3 601 566.7 601 600 601C633.3 601 666.7 601 700 601C733.3 601 766.7 601 800 601C833.3 601 866.7 601 883.3 601L900 601L900 449L883.3 462C866.7 475 833.3 501 800 500C766.7 499 733.3 471 700 454C666.7 437 633.3 431 600 439C566.7 447 533.3 469 500 467C466.7 465 433.3 439 400 440C366.7 441 333.3 469 300 473C266.7 477 233.3 457 200 458C166.7 459 133.3 481 100 465C66.7 449 33.3 395 16.7 368L0 341Z" fill="#004cbb"></path></svg>